<mxfile host="app.diagrams.net" modified="2024-04-29T04:16:56.948Z" agent="Mozilla/5.0 (Windows NT 10.0; WOW64) AppleWebKit/537.36 (KHTML, like Gecko) Chrome/86.0.4240.198 Safari/537.36" version="24.3.1" etag="j-wKUXSemXMbzysKlIOg" type="github">
  <diagram name="第 1 页" id="Zgll8zi7vLJ5fXoQQQHR">
    <mxGraphModel>
      <root>
        <mxCell id="0" />
        <mxCell id="1" parent="0" />
      </root>
    </mxGraphModel>
  </diagram>
</mxfile>
